<svg height="512pt" viewBox="-16 0 512 512" width="512pt" xmlns="http://www.w3.org/2000/svg"><g fill="#5c9cee"><path d="m100 130c-49.710938 0-90 40.289062-90 90v90h40v152h100v-112l34.199219-161.851562c-12.859375-33.976563-45.710938-58.148438-84.199219-58.148438zm0 0"/><path d="m380 130c-38.488281 0-71.339844 24.171875-84.199219 58.148438l-.359375.941406 34.558594 160.910156v112h100v-152h40v-90c0-49.710938-40.289062-90-90-90zm0 0"/><path d="m430 60c0 27.613281-22.386719 50-50 50s-50-22.386719-50-50 22.386719-50 50-50 50 22.386719 50 50zm0 0"/></g><path d="m240 170c49.703125 0 90 40.277344 90 90v90h-40v152h-100v-152h-40c0-10.535156 0-75.726562 0-90 0-49.710938 40.277344-90 90-90zm0 0" fill="#656d88"/><path d="m290 100c0 27.613281-22.386719 50-50 50s-50-22.386719-50-50 22.386719-50 50-50 50 22.386719 50 50zm0 0" fill="#656d88"/><path d="m150 60c0 27.613281-22.386719 50-50 50s-50-22.386719-50-50 22.386719-50 50-50 50 22.386719 50 50zm0 0" fill="#5c9cee"/><path d="m250 350c0 5.523438-4.476562 10-10 10s-10-4.476562-10-10 4.476562-10 10-10 10 4.476562 10 10zm0 0"/><path d="m0 220v90c0 5.523438 4.476562 10 10 10h30v142c0 5.523438 4.476562 10 10 10h100c5.523438 0 10-4.476562 10-10v-102h20v142c0 5.523438 4.476562 10 10 10h100c5.523438 0 10-4.476562 10-10v-142h20v102c0 5.523438 4.476562 10 10 10h100c5.523438 0 10-4.476562 10-10v-142h30c5.523438 0 10-4.476562 10-10v-90c0-55.140625-44.859375-100-100-100-38.824219 0-72.335938 22.117188-88.835938 54.042969-15.402343-9.21875-32.867187-14.042969-51.164062-14.042969s-35.757812 4.824219-51.164062 14.042969c-16.492188-31.910157-49.996094-54.042969-88.835938-54.042969-55.140625 0-100 44.859375-100 100zm380-80c44.113281 0 80 35.886719 80 80v80h-30c-5.523438 0-10 4.476562-10 10v142h-30v-142c0-5.523438-4.476562-10-10-10s-10 4.476562-10 10v142h-30c0-10.164062 0-183.695312 0-192 0-27.734375-11.242188-54.316406-32.527344-73.792969 13.027344-27.863281 41.457032-46.207031 72.527344-46.207031zm-60 120v80h-30c-5.523438 0-10 4.476562-10 10v142h-30v-102c0-5.523438-4.476562-10-10-10s-10 4.476562-10 10v102h-30v-142c0-5.523438-4.476562-10-10-10h-30c0-25.480469 0-65.515625 0-80 0-44.308594 35.890625-80 80-80 44.132812 0 80 35.691406 80 80zm-220-120c31.066406 0 59.492188 18.335938 72.523438 46.195312-20.757813 18.9375-32.523438 45.425782-32.523438 73.804688v192h-30v-142c0-5.523438-4.476562-10-10-10s-10 4.476562-10 10v142h-30v-142c0-5.523438-4.476562-10-10-10h-30v-80c0-44.113281 35.886719-80 80-80zm0 0"/><path d="m300 100c0-33.085938-26.914062-60-60-60s-60 26.914062-60 60 26.914062 60 60 60 60-26.914062 60-60zm-60 40c-22.054688 0-40-17.945312-40-40s17.945312-40 40-40 40 17.945312 40 40-17.945312 40-40 40zm0 0"/><path d="m440 60c0-33.085938-26.914062-60-60-60s-60 26.914062-60 60 26.914062 60 60 60 60-26.914062 60-60zm-60 40c-22.054688 0-40-17.945312-40-40s17.945312-40 40-40 40 17.945312 40 40-17.945312 40-40 40zm0 0"/><path d="m160 60c0-33.085938-26.914062-60-60-60s-60 26.914062-60 60 26.914062 60 60 60 60-26.914062 60-60zm-60 40c-22.054688 0-40-17.945312-40-40s17.945312-40 40-40 40 17.945312 40 40-17.945312 40-40 40zm0 0"/></svg>