<?xml version="1.0" encoding="iso-8859-1"?>
<!-- Generator: Adobe Illustrator 19.0.0, SVG Export Plug-In . SVG Version: 6.00 Build 0)  -->
<svg xmlns="http://www.w3.org/2000/svg" xmlns:xlink="http://www.w3.org/1999/xlink" version="1.1" id="Layer_1" x="0px" y="0px" viewBox="0 0 512 512" style="enable-background:new 0 0 512 512;" xml:space="preserve" width="512" height="512">
<g>
	<g>
		<path style="fill-rule:evenodd;clip-rule:evenodd;fill:#52CBF0;" d="M292.291,293.415l-18.251,49.998l22.906,119.673    l-13.823,38.447c66.236-2.152,131.682-13.278,189.793-33.408C469.109,363.514,384.902,305.418,292.291,293.415L292.291,293.415z"/>
	</g>
	<g>
		<path style="fill-rule:evenodd;clip-rule:evenodd;fill:#C6C4C8;" d="M219.709,293.5l18.251,49.913h18.054h18.025l18.251-49.998    c-11.904,3.907-24.344,5.974-36.785,5.889C243.377,299.219,231.303,297.181,219.709,293.5L219.709,293.5z"/>
	</g>
	<g>
		<path style="fill-rule:evenodd;clip-rule:evenodd;fill:#FFBF9E;" d="M108.536,145.119c-12.187,21.318,1.693,53.254,27.674,54.216    c-0.31-2.973-0.451-6.002-0.451-9.032v-45.185H108.536z"/>
	</g>
	<g>
		<path style="fill-rule:evenodd;clip-rule:evenodd;fill:#FFD4BE;" d="M135.759,145.119v45.185c0,3.029,0.141,6.059,0.451,9.032    c4.429,43.741,40.452,80.376,83.5,94.136v0.028c11.594,3.681,23.668,5.719,35.797,5.804c12.441,0.085,24.88-1.982,36.785-5.889    c11.284-3.68,22.088-8.946,31.934-15.572c27.251-18.232,47.334-46.544,50.552-78.536c0.31-2.972,0.451-5.974,0.451-9.003v-45.185    h-94.953c-47.11,0-78.224-15.996-100.848-38.787C179.878,150.753,135.759,145.119,135.759,145.119L135.759,145.119z"/>
	</g>
	<g>
		<path style="fill-rule:evenodd;clip-rule:evenodd;fill:#FFBF9E;" d="M375.228,145.119v45.185c0,3.029-0.142,6.031-0.451,9.003    c25.979-0.962,41.072-32.898,28.915-54.216L375.228,145.119z"/>
		<path style="fill:#FFCB7C;" d="M374.65,199.426l0.014-0.131c0.299-2.871,0.45-5.896,0.45-8.991v-45.299h0.114l28.53-0.029    l0.033,0.058c6.015,10.548,5.696,24.388-0.832,36.121c-2.9,5.213-6.881,9.63-11.515,12.773    c-5.045,3.423-10.652,5.271-16.664,5.494L374.65,199.426z M375.342,145.233v45.07c0,3.057-0.147,6.044-0.439,8.883    c11.386-0.47,21.792-7.246,27.855-18.144c6.478-11.642,6.808-25.367,0.866-35.838L375.342,145.233z"/>
	</g>
	<g>
		<path style="fill-rule:evenodd;clip-rule:evenodd;fill:#ADAAAF;" d="M247.044,10.525    c-56.982,4.474-111.285,42.637-111.285,107.131v27.463c0,0,44.119,5.634,43.667-38.787    c22.624,22.791,53.738,38.787,100.848,38.787h94.953c7.729-87.823-46.799-129.922-105.758-134.594H247.044z"/>
	</g>
	<g>
		<path style="fill-rule:evenodd;clip-rule:evenodd;fill:#52CBF0;" d="M219.709,293.472    c-92.611,12.004-176.816,70.042-180.625,174.654c58.14,20.129,123.558,31.256,189.792,33.408l-13.822-38.447l22.906-119.673    L219.709,293.5V293.472L219.709,293.472z"/>
	</g>
	<g>
		<path style="fill-rule:evenodd;clip-rule:evenodd;fill:#F9F9F9;" d="M237.961,343.413l-22.906,119.673l13.822,38.447    c9.029,0.312,18.083,0.424,27.139,0.368c9.027,0.057,18.082-0.056,27.108-0.368l13.823-38.447L274.04,343.413h-18.025H237.961z"/>
	</g>
	<g>
		<path d="M422.563,338.468c-25.957-22.82-59.856-39.785-97.578-49.15c1.633-1,3.252-2.024,4.848-3.093    c29.084-19.46,48.346-47.764,53.85-78.069c11.562-2.917,21.669-10.794,27.99-22.154c8.212-14.759,8.511-32.35,0.78-45.907    c-1.795-3.147-5.139-5.089-8.761-5.089c-0.003,0-0.007,0-0.01,0l-17.754,0.018c1.248-38.725-9.528-71.59-31.466-95.542    C331.482,14.391,296.427,0,258.284,0c-33.275,0-66.209,11.009-90.357,30.205c-27.247,21.659-42.253,52.716-42.253,87.451v17.378    h-17.139c-3.618,0-6.959,1.939-8.755,5.08c-7.95,13.909-7.754,31.789,0.511,46.664c6.17,11.104,15.74,18.599,26.983,21.414    c4.422,24.643,17.924,47.751,39.117,66.42c6.306,5.555,13.101,10.513,20.247,14.828c-19.449,4.82-37.803,11.635-54.822,20.403    c-4.951,2.551-6.897,8.632-4.346,13.583c1.789,3.474,5.316,5.469,8.973,5.469c1.555,0,3.133-0.361,4.61-1.122    c21.746-11.203,45.934-18.962,71.992-23.134l14.486,39.616L205.15,461.19c-0.34,1.774-0.197,3.608,0.415,5.308l8.735,24.297    c-34.301-1.833-67.988-6.111-100.08-12.688v-44.975c0-5.57-4.515-10.085-10.084-10.085c-5.57,0-10.084,4.515-10.084,10.085v40.478    c-15.283-3.672-30.151-7.862-44.467-12.582c2.47-32.239,13.244-60.828,32.078-85.07c3.417-4.398,2.621-10.734-1.776-14.15    c-4.399-3.419-10.733-2.622-14.15,1.776c-22.923,29.507-35.28,64.556-36.728,104.174c-0.162,4.431,2.588,8.447,6.778,9.898    c57.75,19.995,124.407,31.736,192.764,33.958c0.01,0,0.02,0,0.029,0c8.877,0.305,18.155,0.431,27.436,0.372    c1.492,0.009,2.987,0.014,4.482,0.014c7.772,0,15.484-0.131,22.928-0.386c0.009,0,0.018,0,0.026,0    c68.39-2.222,135.048-13.964,192.766-33.958c4.19-1.451,6.94-5.467,6.777-9.896C481.12,416.283,460.224,371.574,422.563,338.468z     M266.986,333.328H245.01l-9.383-25.659c6.585,1.091,13.212,1.679,19.808,1.719c0.27,0.002,0.54,0.003,0.81,0.003    c6.665,0,13.397-0.593,20.106-1.718L266.986,333.328z M394.048,176.195c-2.279,4.096-5.276,7.333-8.737,9.563v-30.563    l11.697-0.012C398.776,161.766,397.763,169.518,394.048,176.195z M145.843,117.656c0-63.32,57.933-97.486,112.441-97.486    c32.501,0,62.135,12.004,81.306,32.935c18.404,20.096,27.373,48.284,26.164,81.93h-85.48c-39.126,0-69.773-11.713-93.691-35.808    c-1.932-1.946-4.523-2.979-7.159-2.979c-1.309,0-2.63,0.255-3.887,0.78c-3.787,1.583-6.236,5.303-6.194,9.407    c0.096,9.459-2.195,16.619-6.809,21.279c-4.712,4.761-11.328,6.587-16.691,7.231V117.656z M117.921,176.981    c-3.8-6.839-4.739-14.893-2.76-21.777h10.514v30.441C122.605,183.561,119.951,180.634,117.921,176.981z M145.843,190.304v-35.097    c8.96-0.75,21.5-3.682,31.024-13.304c4.363-4.407,7.606-9.694,9.716-15.816c25.411,19.564,56.247,29.117,93.691,29.117h84.869    v35.1c0,30.074-17.394,59.665-46.532,79.161c-19.234,12.89-41.592,19.89-63.043,19.754c-10.873-0.066-21.561-1.813-31.746-4.946    c-0.705-0.316-1.446-0.556-2.218-0.704C179.054,269.538,145.843,231.277,145.843,190.304z M256.079,491.817    c-0.022,0-0.043,0-0.064,0c-0.021,0-0.042,0-0.063,0c-6.694,0.041-13.388-0.013-19.911-0.165l-10.563-29.38l20.82-108.774h19.406    l20.819,108.774l-10.562,29.38C269.441,491.804,262.751,491.858,256.079,491.817z M414.366,474.456v-41.21    c0-5.57-4.515-10.085-10.084-10.085c-5.568,0-10.084,4.515-10.084,10.085v45.57c-31.01,6.168-63.46,10.214-96.498,11.98    l8.735-24.297c0.611-1.7,0.755-3.533,0.415-5.308l-22.383-116.936l14.486-39.681c76.321,12.248,156.131,59.208,163.468,156.455    C446.992,466.117,430.915,470.587,414.366,474.456z"/>
		<path d="M100.901,352.083c1.929,0,3.879-0.552,5.601-1.706l0.169-0.112c4.627-3.099,5.867-9.363,2.769-13.991    c-3.098-4.627-9.361-5.867-13.99-2.769l-0.168,0.113c-4.628,3.099-5.868,9.363-2.769,13.991    C94.458,350.513,97.649,352.083,100.901,352.083z"/>
	</g>
</g>















</svg>
