<svg id="Layer_2" data-name="Layer 2" xmlns="http://www.w3.org/2000/svg" xmlns:xlink="http://www.w3.org/1999/xlink" viewBox="0 0 61.69 87.42"><defs><style>.cls-1{fill:none;}.cls-2{fill:url(#linear-gradient);}.cls-3{fill:url(#linear-gradient-2);}.cls-4{fill:url(#linear-gradient-3);}.cls-5{fill:url(#linear-gradient-4);}.cls-6{fill:url(#linear-gradient-5);}.cls-7{fill:url(#linear-gradient-6);}</style><linearGradient id="linear-gradient" x1="61.69" y1="53.98" x2="0" y2="53.98" gradientUnits="userSpaceOnUse"><stop offset="0" stop-color="#022740"/><stop offset="1" stop-color="#034872"/></linearGradient><linearGradient id="linear-gradient-2" x1="61.69" y1="21.85" x2="0" y2="21.85" xlink:href="#linear-gradient"/><linearGradient id="linear-gradient-3" x1="30.85" y1="87.42" x2="30.85" y2="25.72" gradientUnits="userSpaceOnUse"><stop offset="0" stop-color="#80f4ff"/><stop offset="1" stop-color="#00caff"/></linearGradient><linearGradient id="linear-gradient-4" x1="30.85" y1="87.42" x2="30.85" y2="25.72" xlink:href="#linear-gradient-3"/><linearGradient id="linear-gradient-5" x1="61.69" y1="43.71" x2="0" y2="43.71" xlink:href="#linear-gradient"/><linearGradient id="linear-gradient-6" x1="105.41" y1="43.71" x2="0.17" y2="43.71" gradientUnits="userSpaceOnUse"><stop offset="0" stop-color="#1b4982"/><stop offset="1" stop-color="#225db5"/></linearGradient></defs><title>logo</title><path class="cls-1" d="M21.19,60.14a10.29,10.29,0,0,0,19.31,0,30.85,30.85,0,0,1-19.31,0Z"/><path class="cls-1" d="M30.85,20.54a10.3,10.3,0,0,0-9.66,6.73,30.85,30.85,0,0,1,19.31,0A10.3,10.3,0,0,0,30.85,20.54Z"/><path class="cls-2" d="M30.85,46.26a10.28,10.28,0,0,0-9.66,13.88,30.85,30.85,0,0,0,19.31,0,10.05,10.05,0,0,0,.65-3.57A10.31,10.31,0,0,0,30.85,46.26Z"/><path class="cls-3" d="M21.19,27.27a10.29,10.29,0,0,1,19.31,0A30.93,30.93,0,0,1,58.88,43.71a30.85,30.85,0,1,0-56.07,0A31,31,0,0,1,21.19,27.27Z"/><path class="cls-4" d="M58.88,43.71A30.91,30.91,0,0,1,40.5,60.14a10.29,10.29,0,0,1-19.31,0A30.94,30.94,0,0,1,2.81,43.71,30.85,30.85,0,1,0,61.69,56.57,30.69,30.69,0,0,0,58.88,43.71Z"/><path class="cls-5" d="M21.19,27.27a10.3,10.3,0,1,0,20,3.58,10.15,10.15,0,0,0-.65-3.58,30.85,30.85,0,0,0-19.31,0Z"/><path class="cls-6" d="M21.19,60.14a10.3,10.3,0,1,1,20-3.57,10.05,10.05,0,0,1-.65,3.57A30.91,30.91,0,0,0,58.88,43.71,30.93,30.93,0,0,0,40.5,27.27a10.15,10.15,0,0,1,.65,3.58,10.31,10.31,0,1,1-20-3.58A31,31,0,0,0,2.81,43.71,30.94,30.94,0,0,0,21.19,60.14Z"/><path class="cls-7" d="M21.19,60.14a10.3,10.3,0,1,1,20-3.57,10.05,10.05,0,0,1-.65,3.57A30.91,30.91,0,0,0,58.88,43.71,30.93,30.93,0,0,0,40.5,27.27a10.15,10.15,0,0,1,.65,3.58,10.31,10.31,0,1,1-20-3.58A31,31,0,0,0,2.81,43.71,30.94,30.94,0,0,0,21.19,60.14Z"/></svg>