<svg id="Layer_1" data-name="Layer 1" xmlns="http://www.w3.org/2000/svg" viewBox="0 0 512 512"><defs><style>.cls-1{fill:#d4dbe3;}.cls-2,.cls-5{fill:#fff;}.cls-3{fill:#e3effd;}.cls-4{fill:#ced3e2;}.cls-5,.cls-6,.cls-7{fill-rule:evenodd;}.cls-6{fill:#faf1e8;}.cls-7{fill:#faeae6;}.cls-8{fill:#eaf4fe;}.cls-9{fill:#cdd3db;}.cls-10{fill:#e8fbe5;}.cls-11{fill:#ecfbe9;}.cls-12{fill:#ffd599;}.cls-13{fill:#d6b381;}.cls-14{fill:#3a5c91;}.cls-15{fill:#ff9797;}.cls-16{fill:#d98181;}.cls-17{fill:#ffb8b8;}.cls-18{fill:#89d9a2;}.cls-19{fill:#cfecf4;}.cls-20{fill:#afc8cf;}.cls-21{fill:#a4e4ff;}</style></defs><title>Artboard 5</title><rect class="cls-1" y="-1024" width="2560" height="2048"/><rect class="cls-2" width="512" height="512"/><path class="cls-3" d="M472,275.14c0,61-31.24,102.07-71.2,142s-85.62,57.3-146.6,57.3S124.69,437.37,84.74,397.42s-69.8-24.91-69.8-85.88c0-20.56,13-47.79,12.62-77.62H54.79a14.74,14.74,0,0,0,14.75-14.74v-.28a14.74,14.74,0,0,0-14.75-14.73H50.13a14.7,14.7,0,0,1-13.7-14.64v-.27a14.75,14.75,0,0,1,14.74-14.75h50.45a14.74,14.74,0,0,0,14.75-14.73v-.28a14.75,14.75,0,0,0-14.75-14.74H34.28v-.33h-2c4.15-25.9,11.56-47.86,24.42-60.72,40-40,233.82-64,332.8-29.87C447.2,73.71,399.09,135,439.05,175S472,214.17,472,275.14Z"/><path class="cls-4" d="M251.19,472.82H153.07a2.56,2.56,0,1,1,0-5.12h98.12a2.56,2.56,0,1,1,0,5.12Z"/><path class="cls-4" d="M117.45,472H92.15a2.56,2.56,0,1,1,0-5.12h25.3a2.56,2.56,0,1,1,0,5.12Z"/><path class="cls-2" d="M357.07,99.06h-2.36A11.08,11.08,0,0,0,340.15,82.8a19.63,19.63,0,0,0-35.62,16.26h-3.78a12.8,12.8,0,0,0,0,25.6h56.32a12.8,12.8,0,1,0,0-25.6Z"/><path class="cls-4" d="M357.07,127.22H300.75a15.36,15.36,0,0,1,0-30.72h.41a22.55,22.55,0,0,1-.41-4.27A22.18,22.18,0,0,1,341.1,79.49a13.49,13.49,0,0,1,4.87-.91,13.65,13.65,0,0,1,12.94,18,15.36,15.36,0,0,1-1.84,30.61Zm-56.32-25.6a10.24,10.24,0,0,0,0,20.48h56.32a10.24,10.24,0,1,0,0-20.48h-2.36a2.56,2.56,0,0,1-2-4.14,8.43,8.43,0,0,0,1.82-5.25,8.52,8.52,0,0,0-13-7.25,2.56,2.56,0,0,1-2,.3A2.53,2.53,0,0,1,337.91,84a17.07,17.07,0,0,0-32,8.2,16.91,16.91,0,0,0,1.06,5.94,2.56,2.56,0,0,1-2.4,3.45Z"/><path class="cls-4" d="M300.75,127.22A15.36,15.36,0,1,1,311.58,101a2.56,2.56,0,0,1-3.61,3.63,10.24,10.24,0,1,0-7.22,17.51,2.56,2.56,0,0,1,0,5.12Z"/><path class="cls-4" d="M357.07,94.79a2.56,2.56,0,0,1-2.56-2.56,8.54,8.54,0,0,0-17.07,0,2.56,2.56,0,1,1-5.12,0,13.66,13.66,0,0,1,27.31,0A2.56,2.56,0,0,1,357.07,94.79Z"/><polygon class="cls-5" points="462.09 470.26 213.77 470.26 213.77 307.32 338.89 232.07 462.09 304.21 462.09 470.26"/><path class="cls-4" d="M462.09,472.82H213.77a2.56,2.56,0,0,1-2.56-2.56V307.32a2.55,2.55,0,0,1,1.24-2.19l125.12-75.25a2.57,2.57,0,0,1,2.61,0L463.38,302a2.55,2.55,0,0,1,1.27,2.21V470.26A2.56,2.56,0,0,1,462.09,472.82ZM216.33,467.7h243.2v-162L338.9,235.05,216.33,308.77Z"/><polygon class="cls-6" points="466.35 470.26 209.5 470.26 209.5 425.88 466.35 425.04 466.35 470.26"/><path class="cls-4" d="M466.35,472.82H209.5a2.56,2.56,0,0,1-2.56-2.56V425.88a2.56,2.56,0,0,1,2.55-2.56l256.86-.84h0a2.55,2.55,0,0,1,1.81.74,2.58,2.58,0,0,1,.75,1.82v45.22A2.56,2.56,0,0,1,466.35,472.82ZM212.06,467.7H463.79V427.6l-251.73.84Z"/><path class="cls-7" d="M256.33,457.86V336.79a7.14,7.14,0,0,1,7.14-7.14H321.4a7.14,7.14,0,0,1,7.14,7.14V457.86Z"/><path class="cls-4" d="M328.54,460.42H256.33a2.56,2.56,0,0,1-2.56-2.56V336.79a9.71,9.71,0,0,1,9.7-9.7H321.4a9.71,9.71,0,0,1,9.7,9.7V457.86A2.55,2.55,0,0,1,328.54,460.42Zm-69.65-5.12H326V336.79a4.58,4.58,0,0,0-4.58-4.58H263.47a4.59,4.59,0,0,0-4.58,4.58Z"/><polygon class="cls-5" points="438.98 209.65 438.98 279.53 403.44 268.71 403.44 209.65 438.98 209.65"/><path class="cls-4" d="M439,282.09a2.78,2.78,0,0,1-.75-.11l-35.54-10.82a2.57,2.57,0,0,1-1.81-2.45V209.65a2.55,2.55,0,0,1,2.56-2.56H439a2.56,2.56,0,0,1,2.56,2.56v69.88a2.59,2.59,0,0,1-1,2.06A2.54,2.54,0,0,1,439,282.09Zm-33-15.28,30.42,9.26V212.21H406Z"/><rect class="cls-2" x="396.12" y="197.89" width="49.56" height="15.45" rx="7.72"/><path class="cls-4" d="M438,215.9H403.84a10.29,10.29,0,0,1,0-20.57H438a10.29,10.29,0,0,1,0,20.57Zm-34.12-15.45a5.17,5.17,0,0,0,0,10.33H438a5.17,5.17,0,0,0,0-10.33Z"/><rect class="cls-8" x="361.33" y="318.45" width="69.57" height="69.58" rx="3.57"/><path class="cls-4" d="M427.33,390.59H364.9a6.14,6.14,0,0,1-6.13-6.13V322a6.14,6.14,0,0,1,6.13-6.14h62.43a6.14,6.14,0,0,1,6.13,6.14v62.43A6.14,6.14,0,0,1,427.33,390.59ZM364.9,321a1,1,0,0,0-1,1v62.43a1,1,0,0,0,1,1h62.43a1,1,0,0,0,1-1V322a1,1,0,0,0-1-1Z"/><path class="cls-9" d="M247,457.86H338.1a4.46,4.46,0,0,1,4.46,4.46v8a0,0,0,0,1,0,0h-100a0,0,0,0,1,0,0v-8A4.46,4.46,0,0,1,247,457.86Z"/><path class="cls-8" d="M488.48,293.35l-126-72.5L338.37,207l-24.16,13.9-125.95,72.5a12.06,12.06,0,0,0,12.05,20.89l138.06-79.48,138.06,79.48a12.06,12.06,0,0,0,12.05-20.89Z"/><path class="cls-4" d="M194.31,318.4A14.61,14.61,0,0,1,187,291.14l126-72.51,24.16-13.9a2.55,2.55,0,0,1,2.56,0l24.15,13.9,126,72.51h0a14.61,14.61,0,0,1-14.61,25.31L338.37,237.71,201.58,316.45A14.41,14.41,0,0,1,194.31,318.4ZM338.37,209.9,189.53,295.57A9.5,9.5,0,0,0,199,312l138.06-79.48a2.55,2.55,0,0,1,2.56,0L477.71,312a9.5,9.5,0,0,0,9.49-16.45l-125.95-72.5Z"/><path class="cls-10" d="M419.39,430.48a26.62,26.62,0,0,1,51.78,5.61A16.91,16.91,0,0,1,488.05,453,17.38,17.38,0,0,1,471,470.26H420.63a20.21,20.21,0,0,1-19.93-20.08A19.73,19.73,0,0,1,419.39,430.48Z"/><path class="cls-4" d="M471,472.82H420.63a22.87,22.87,0,0,1-22.49-22.64,22.27,22.27,0,0,1,19.4-22.1,29.18,29.18,0,0,1,55.88,5.58A19.51,19.51,0,0,1,490.61,453,20,20,0,0,1,471,472.82ZM444.69,414.7a24,24,0,0,0-22.86,16.58l-.55,1.67-1.76.09a17.15,17.15,0,0,0-16.26,17.14,17.69,17.69,0,0,0,17.37,17.52H471A14.82,14.82,0,0,0,485.49,453a14.37,14.37,0,0,0-14.33-14.35h-2.31l-.23-2.31A24,24,0,0,0,444.69,414.7Z"/><path class="cls-11" d="M151.3,344l0,0-.13-.18c-13-17.59-12.74-22.89-6.35-38.13a46.82,46.82,0,1,0-85.94,0c6.39,15.24,6.64,20.54-6.36,38.13l-.13.18,0,0a61.61,61.61,0,1,0,99,0Z"/><path class="cls-4" d="M101.82,444.84A64.16,64.16,0,0,1,50.25,342.49l.19-.25c12.31-16.65,12.18-21,6.05-35.61A48.82,48.82,0,0,1,52.44,287a49.38,49.38,0,0,1,98.76,0,48.91,48.91,0,0,1-4.07,19.62c-6.12,14.61-6.25,18.93,6.07,35.59l.18.25a64.16,64.16,0,0,1-51.56,102.34Zm0-202.06A44.27,44.27,0,0,0,61.2,304.63c6.76,16.12,7,22.22-6.65,40.66l-.13.18a59,59,0,1,0,94.83,0l-.17-.23c-13.63-18.44-13.41-24.54-6.65-40.64a44.27,44.27,0,0,0-40.61-61.87Z"/><path class="cls-4" d="M101.82,471a2.55,2.55,0,0,1-2.56-2.56V308.16a2.56,2.56,0,0,1,5.12,0V468.41A2.56,2.56,0,0,1,101.82,471Z"/><path class="cls-4" d="M103.56,347.3a2.56,2.56,0,1,1,0-5.12c10.39,0,16.6-5.56,16.6-14.86a2.56,2.56,0,1,1,5.12,0C125.28,339.46,116.75,347.3,103.56,347.3Z"/><path class="cls-4" d="M101.82,403a2.56,2.56,0,1,1,0-5.12c14.9,0,25.31-11.84,25.31-28.8a2.56,2.56,0,0,1,5.12,0C132.25,389.09,119.73,403,101.82,403Z"/><path class="cls-4" d="M101.82,387.36c-17.92,0-30.43-13.94-30.43-33.91a2.56,2.56,0,1,1,5.12,0c0,16.95,10.4,28.79,25.31,28.79a2.56,2.56,0,0,1,0,5.12Z"/><rect class="cls-12" x="234.44" y="316.35" width="34.13" height="153.6"/><polygon class="cls-13" points="236.55 333.61 251.33 334.77 266.34 335.91 266.34 316.64 236.55 316.64 236.55 333.61"/><path class="cls-14" d="M268.58,472.51H234.44a2.56,2.56,0,0,1-2.56-2.56V316.35a2.56,2.56,0,0,1,2.56-2.56h34.14a2.56,2.56,0,0,1,2.56,2.56V470A2.56,2.56,0,0,1,268.58,472.51ZM237,467.39h29V318.91H237Z"/><path class="cls-15" d="M340.91,247.19V315.4a4.67,4.67,0,0,1-4.67,4.67H148.06V247.31a28,28,0,0,1,28.05-27.93H312.85A28,28,0,0,1,337,233c.43.71.82,1.45,1.18,2.2a27.81,27.81,0,0,1,1.73,4.54A28.22,28.22,0,0,1,340.91,247.19Z"/><path class="cls-16" d="M148.06,305.54v14.53H336.24a4.67,4.67,0,0,0,4.67-4.67v-9.86Z"/><path class="cls-17" d="M337,233H190.73V219.38H312.85A28,28,0,0,1,337,233Z"/><path class="cls-14" d="M336.24,322.63H145.5V247.31a30.59,30.59,0,0,1,30.61-30.49H312.85a31.31,31.31,0,0,1,7.62.94,30.3,30.3,0,0,1,23,29.43V315.4A7.23,7.23,0,0,1,336.24,322.63Zm-185.62-5.12H336.24a2.11,2.11,0,0,0,2.11-2.11V247.19a25.43,25.43,0,0,0-25.5-25.25H176.11a25.46,25.46,0,0,0-25.49,25.37Z"/><path class="cls-16" d="M314.68,246.21h-87a7.07,7.07,0,1,0,0,14.14h60.61v24.16a3.5,3.5,0,0,0,3.5,3.5h22a3.5,3.5,0,0,0,3.5-3.5V248.77A2.56,2.56,0,0,0,314.68,246.21Z"/><path class="cls-2" d="M223.14,249.86h0a4.51,4.51,0,0,0,4.51,4.52h87v-9h-87A4.51,4.51,0,0,0,223.14,249.86Z"/><path class="cls-14" d="M220.57,249.87a7.09,7.09,0,0,1,7.08-7.08h87a2.56,2.56,0,0,1,2.56,2.56v9a2.56,2.56,0,0,1-2.56,2.56h-87A7.08,7.08,0,0,1,220.57,249.87Zm91.55-2H227.65a2,2,0,1,0,0,3.91h84.47Z"/><path class="cls-9" d="M175.15,219.38h-5.92a28,28,0,0,0-28,28v72.69h62.3V247.75A28.46,28.46,0,0,0,175.15,219.38Z"/><path class="cls-14" d="M203.53,322.63h-62.3a2.56,2.56,0,0,1-2.56-2.56V247.38a30.6,30.6,0,0,1,30.56-30.56h5.92a31,31,0,0,1,30.94,30.93v72.32A2.56,2.56,0,0,1,203.53,322.63Zm-59.74-5.12H201V247.75a25.84,25.84,0,0,0-25.82-25.81h-5.92a25.47,25.47,0,0,0-25.44,25.44Z"/><rect class="cls-12" x="290.82" y="245.93" width="23.85" height="36.1" rx="0.93"/><path class="cls-14" d="M288.26,281.1V246.87a3.5,3.5,0,0,1,3.5-3.5h22a3.5,3.5,0,0,1,3.5,3.5V281.1a3.5,3.5,0,0,1-3.5,3.49h-22A3.5,3.5,0,0,1,288.26,281.1Zm5.12-32.61v31h18.74v-31Z"/><path class="cls-18" d="M201.16,425.78,216.52,470h12.8C225.63,438.54,201.16,425.78,201.16,425.78Z"/><path class="cls-14" d="M229.32,472.51h-12.8a2.56,2.56,0,0,1-2.42-1.72l-15.36-44.17a2.56,2.56,0,0,1,3.61-3.11c1,.55,25.7,13.76,29.52,46.14a2.56,2.56,0,0,1-2.55,2.86Zm-11-5.12h8a57.16,57.16,0,0,0-20.22-35Z"/><path class="cls-18" d="M244.68,403.7c7.55,21.48,5.59,43.64-2.56,66.25h-12.8C228.55,424.33,243.83,408.85,244.68,403.7Z"/><path class="cls-14" d="M242.12,472.51h-12.8a2.57,2.57,0,0,1-2.56-2.52c-.62-36.44,8.85-54.06,13.41-62.53a23.87,23.87,0,0,0,2-4.18,2.56,2.56,0,0,1,4.94-.43c7.28,20.73,6.44,43-2.57,68A2.56,2.56,0,0,1,242.12,472.51Zm-10.26-5.12h8.45c7.16-20.66,8.44-39.25,3.88-56.59C239.8,419,231.73,435.23,231.86,467.39Z"/><path class="cls-18" d="M294.18,425.78,278.82,470H266C269.71,438.54,294.18,425.78,294.18,425.78Z"/><path class="cls-14" d="M278.82,472.51H266a2.56,2.56,0,0,1-2.55-2.86c3.82-32.38,28.47-45.59,29.52-46.14a2.56,2.56,0,0,1,3.6,3.11l-15.36,44.17A2.54,2.54,0,0,1,278.82,472.51ZM269,467.39h8l12.16-35A57.29,57.29,0,0,0,269,467.39Z"/><path class="cls-18" d="M265.16,405.91c5.22,24.23,6.27,46.73-5.12,64h-12.8C250.94,438.54,265.16,405.91,265.16,405.91Z"/><path class="cls-14" d="M260,472.51h-12.8a2.56,2.56,0,0,1-2.54-2.86c3.7-31.42,18-64.44,18.12-64.77a2.54,2.54,0,0,1,2.6-1.52,2.57,2.57,0,0,1,2.25,2c4.35,20.22,7.67,46-5.49,66A2.57,2.57,0,0,1,260,472.51Zm-9.89-5.12h8.49c7.86-12.73,9.67-29.19,5.67-52.46C260.12,426,253,446.82,250.15,467.39Z"/><path class="cls-14" d="M258.34,353a1.71,1.71,0,0,1-1.71-1.71V326.59a1.71,1.71,0,1,1,3.41,0v24.74A1.71,1.71,0,0,1,258.34,353Z"/><path class="cls-14" d="M258.34,371a1.71,1.71,0,0,1-1.71-1.71v-9.38a1.71,1.71,0,1,1,3.41,0v9.38A1.71,1.71,0,0,1,258.34,371Z"/><path class="cls-14" d="M325.55,472.82H188.36a2.56,2.56,0,0,1,0-5.12H325.55a2.56,2.56,0,1,1,0,5.12Z"/><path class="cls-19" d="M165.13,232.18h11.95A6.83,6.83,0,0,1,183.9,239v22.19a0,0,0,0,1,0,0H165.13a0,0,0,0,1,0,0v-29A0,0,0,0,1,165.13,232.18Z"/><path class="cls-14" d="M183.9,263.75H165.13a2.56,2.56,0,0,1-2.56-2.56v-29a2.55,2.55,0,0,1,2.56-2.56h11.94a9.4,9.4,0,0,1,9.39,9.38v22.19A2.56,2.56,0,0,1,183.9,263.75Zm-16.21-5.12h13.65V239a4.27,4.27,0,0,0-4.27-4.26h-9.38Z"/><path class="cls-14" d="M183.9,263.75H165.13a2.56,2.56,0,0,1-2.56-2.56v-29a2.55,2.55,0,0,1,2.56-2.56h11.94a9.4,9.4,0,0,1,9.39,9.38v22.19A2.56,2.56,0,0,1,183.9,263.75Zm-16.21-5.12h13.65V239a4.27,4.27,0,0,0-4.27-4.26h-9.38Z"/><path class="cls-14" d="M179.49,231.33a2.56,2.56,0,0,0-2.42-1.71H165.13a2.55,2.55,0,0,0-2.55,2.35,1.48,1.48,0,0,0,0,.21v16.21h5.12V234.74h9.38a2.55,2.55,0,0,0,2.56-2.56A2.61,2.61,0,0,0,179.49,231.33Z"/><path class="cls-20" d="M180.39,236.34a2.68,2.68,0,0,1-.76.11,4.27,4.27,0,0,0-4.26,4.25v5.14a2.57,2.57,0,0,1-2.56,2.56h-5.12V234.74h9.38a4.19,4.19,0,0,1,.5,0,2.25,2.25,0,0,1,.36.06l.27.07a1.09,1.09,0,0,1,.24.07,1,1,0,0,1,.16.06,2.07,2.07,0,0,1,.34.15,2.71,2.71,0,0,1,.41.23,2.6,2.6,0,0,1,.38.27l.18.15.17.16C180.19,236.1,180.29,236.22,180.39,236.34Z"/><path class="cls-2" d="M177.07,232.18H160.86A6.82,6.82,0,0,0,154,239v5.12h16.22V239A6.82,6.82,0,0,1,177.07,232.18Z"/><path class="cls-14" d="M179.49,231.33a2.56,2.56,0,0,0-2.42-1.71H160.86a9.4,9.4,0,0,0-9.39,9.39v5.12a2.56,2.56,0,0,0,2.56,2.56h16.22a2.56,2.56,0,0,0,2.56-2.56V239a4.27,4.27,0,0,1,4.26-4.25,2.55,2.55,0,0,0,2.56-2.56A2.61,2.61,0,0,0,179.49,231.33ZM167.69,239v2.6h-11.1V239a4.28,4.28,0,0,1,4.27-4.27h7.86A9.27,9.27,0,0,0,167.69,239Z"/><rect class="cls-2" x="148.06" y="312.39" width="11.09" height="7.68"/><path class="cls-14" d="M159.15,322.63H148.06a2.56,2.56,0,0,1-2.56-2.56v-7.68a2.56,2.56,0,0,1,2.56-2.56h11.09a2.56,2.56,0,0,1,2.56,2.56v7.68A2.56,2.56,0,0,1,159.15,322.63Zm-8.53-5.12h6V315h-6Z"/><rect class="cls-2" x="184.75" y="312.39" width="11.09" height="7.68"/><path class="cls-14" d="M195.85,322.63h-11.1a2.56,2.56,0,0,1-2.56-2.56v-7.68a2.56,2.56,0,0,1,2.56-2.56h11.1a2.56,2.56,0,0,1,2.56,2.56v7.68A2.56,2.56,0,0,1,195.85,322.63Zm-8.54-5.12h6V315h-6Z"/><path class="cls-2" d="M226.57,172.44V155.71a12.18,12.18,0,0,0-11.37-12.27,12,12,0,0,0-12.53,11.94v23.46a26.88,26.88,0,0,0,26.88,26.88h0a26.87,26.87,0,0,0,26.88-26.88v-3H230A3.42,3.42,0,0,1,226.57,172.44Z"/><path class="cls-14" d="M229.55,208.28a29.47,29.47,0,0,1-29.44-29.44V155.38a14.51,14.51,0,0,1,15.21-14.49,14.65,14.65,0,0,1,13.81,14.82v16.73a.86.86,0,0,0,.85.86h29v5.54A29.46,29.46,0,0,1,229.55,208.28ZM214.62,146a9.38,9.38,0,0,0-9.39,9.39v23.46a24.32,24.32,0,1,0,48.64,0v-.42H230a6,6,0,0,1-6-6V155.71a9.67,9.67,0,0,0-8.93-9.71Z"/><circle class="cls-2" cx="211.21" cy="153.67" r="1.28"/><path class="cls-14" d="M211.21,157.51a3.84,3.84,0,1,1,3.84-3.84A3.84,3.84,0,0,1,211.21,157.51Zm0-5.12a1.28,1.28,0,1,0,1.28,1.28A1.28,1.28,0,0,0,211.21,152.39Z"/><polygon class="cls-21" points="202.67 163.91 190.73 159.64 202.67 151.96 202.67 163.91"/><path class="cls-14" d="M202.67,166.47a2.55,2.55,0,0,1-.86-.15l-11.94-4.27a2.55,2.55,0,0,1-.53-4.56l11.95-7.68a2.56,2.56,0,0,1,3.94,2.15v11.95a2.56,2.56,0,0,1-2.56,2.56ZM196.49,159l3.62,1.3v-3.63Z"/><rect class="cls-14" x="233.39" y="205.72" width="5.12" height="12.8"/><rect class="cls-14" x="222.3" y="205.72" width="5.12" height="12.8"/><path class="cls-14" d="M230.83,191.64a20,20,0,0,1-10.75-3.38,2.56,2.56,0,1,1,2.73-4.33c5.4,3.41,10.65,3.41,16.05,0a2.56,2.56,0,0,1,2.73,4.33A20,20,0,0,1,230.83,191.64Z"/></svg>