<svg height="512pt" viewBox="-26 0 512 512" width="512pt" xmlns="http://www.w3.org/2000/svg"><path d="m141.003906 503.496094c-15.578125 4.175781-31.589844-5.066406-35.761718-20.644532l-96.730469-361.003906c-4.175781-15.574218 5.070312-31.585937 20.644531-35.757812l289.554688-77.585938c15.574218-4.175781 31.585937 5.066406 35.757812 20.644532l96.734375 361.003906c4.171875 15.574218-5.070313 31.585937-20.648437 35.757812zm0 0" fill="#ff5368"/><path d="m383.855469 34h-308c-16.566407 0-30 13.429688-30 30v384.003906c0 16.566406 13.433593 30 30 30h308c16.570312 0 30-13.433594 30-30v-384.003906c0-16.570312-13.429688-30-30-30zm-124 60c0 16.566406-13.429688 30-30 30-16.566407 0-30-13.433594-30-30 0-16.570312 13.433593-30 30-30 16.570312 0 30 13.429688 30 30zm0 0" fill="#ffcf5d"/><path d="m45.855469 448c0 16.570312 13.433593 30 30 30h308c16.570312 0 30-13.429688 30-30v-384c0-16.570312-13.429688-30-30-30v384c0 16.570312-13.429688 30-30 30zm0 0" fill="#ff983b"/><g fill="#020201"><path d="m205.136719 75.410156c-3.8125-1.613281-8.214844.171875-9.828125 3.984375-1.960938 4.628907-2.953125 9.542969-2.953125 14.605469 0 20.675781 16.824219 37.5 37.5 37.5 20.679687 0 37.5-16.824219 37.5-37.5 0-20.679688-16.820313-37.5-37.5-37.5-2.144531 0-4.292969.183594-6.386719.542969-4.082031.703125-6.820312 4.578125-6.121094 8.664062.703125 4.082031 4.582032 6.824219 8.664063 6.117188 1.257812-.214844 2.550781-.324219 3.84375-.324219 12.40625 0 22.5 10.09375 22.5 22.5s-10.09375 22.5-22.5 22.5-22.5-10.09375-22.5-22.5c0-3.042969.59375-5.988281 1.765625-8.757812 1.617187-3.816407-.167969-8.214844-3.984375-9.832032zm0 0"/><path d="m458.445312 388.210938-37.089843-138.417969v-185.792969c0-20.726562-16.761719-37.5-37.5-37.5h-22.347657c-2.648437-9.152344-8.617187-16.796875-16.890624-21.574219-5.6875-3.285156-12.003907-4.925781-18.398438-4.925781-3.097656 0-6.324219.421875-9.449219 1.257812l-94.203125 25.242188h-146.710937c-20.726563 0-37.5 16.765625-37.5 37.5v11.859375l-11.140625 2.984375c-9.464844 2.535156-17.378906 8.605469-22.28125 17.097656-4.902344 8.488282-6.203125 18.378906-3.667969 27.847656l37.089844 138.421876v185.789062c0 9.609375 3.628906 18.738281 10.210937 25.71875 6.539063 6.953125 15.390625 11.109375 24.910156 11.710938 4.0625.265624 7.683594-2.851563 7.949219-7.019532.269531-4.179687-2.921875-7.695312-7.011719-7.960937-11.820312-.730469-21.070312-10.601563-21.058593-22.449219v-384c.019531-12.378906 10.121093-22.480469 22.5-22.5h279.839843c.023438 0 .046876.007812.070313.007812.03125 0 .058594-.007812.089844-.007812h28c12.378906.019531 22.480469 10.121094 22.5 22.5v384c-.019531 12.390625-10.121094 22.480469-22.5 22.5h-279.613281c-.003907 0-.003907 0-.007813 0-5.632813 0-8.730469 4.996094-7.539063 9.4375l1.300782 4.855469c2.539062 9.46875 8.609375 17.382812 17.101562 22.28125 5.652344 3.265625 11.929688 4.925781 18.289063 4.925781 4.085937 0 6.394531-.410156 9.558593-1.257812l94.207032-25.242188h146.707031c10.019531 0 19.429687-3.898438 26.519531-10.980469 7.078125-7.078125 10.980469-16.5 10.980469-26.519531v-11.859375l11.136719-2.984375c19.59375-5.25 31.199218-25.351562 25.949218-44.945312zm-442.6875-268.304688c-1.5-5.597656-.730468-11.445312 2.164063-16.464844 2.898437-5.019531 7.578125-8.609375 13.175781-10.109375l7.257813-1.945312v112.867187zm304.894532-104.160156c5.597656-1.5 11.445312-.730469 16.464844 2.167968 3.566406 2.0625 6.394531 5.035157 8.285156 8.585938h-64.882813zm-181.589844 480.507812c-5.597656 1.5-11.445312.730469-16.464844-2.167968-3.570312-2.0625-6.398437-5.035157-8.285156-8.585938h64.882812zm289.550781-77.585937-7.257812 1.945312v-112.867187l22.601562 84.347656c3.101563 11.582031-3.757812 23.46875-15.34375 26.574219zm0 0"/><path d="m107.355469 217.488281c0 4.140625 3.359375 7.5 7.5 7.5h230c4.144531 0 7.5-3.359375 7.5-7.5 0-4.144531-3.355469-7.5-7.5-7.5h-230c-4.140625 0-7.5 3.355469-7.5 7.5zm0 0"/><path d="m114.855469 274.988281h230c4.144531 0 7.5-3.359375 7.5-7.5 0-4.144531-3.355469-7.5-7.5-7.5h-230c-4.140625 0-7.5 3.355469-7.5 7.5 0 4.140625 3.359375 7.5 7.5 7.5zm0 0"/><path d="m114.855469 324.988281h149.996093c4.144532 0 7.5-3.359375 7.5-7.5 0-4.144531-3.355468-7.5-7.5-7.5h-149.996093c-4.140625 0-7.5 3.355469-7.5 7.5 0 4.140625 3.359375 7.5 7.5 7.5zm0 0"/></g></svg>