<?xml version="1.0" encoding="iso-8859-1"?>
<!-- Generator: Adobe Illustrator 19.0.0, SVG Export Plug-In . SVG Version: 6.00 Build 0)  -->
<svg version="1.1" id="Capa_1" xmlns="http://www.w3.org/2000/svg" xmlns:xlink="http://www.w3.org/1999/xlink" x="0px" y="0px"
	 viewBox="0 0 511.988 511.988" style="enable-background:new 0 0 511.988 511.988;" xml:space="preserve">
<g>
	<g transform="translate(1 1)">
		<path style="fill:#2296F3;" d="M501.955,201.063l-40.533,230.4c-3.135,16.569-17.698,28.507-34.56,28.331H38.68
			c-8.264,0.012-16.194-3.266-22.037-9.109s-9.121-13.773-9.109-22.037V74.343c0.018-13.33,10.819-24.132,24.149-24.149h129.451
			c11.766-0.005,22.702,6.06,28.928,16.043l22.613,36.181c6.227,9.983,17.162,16.048,28.928,16.043H420.12
			c8.264-0.012,16.194,3.266,22.037,9.109s9.121,13.773,9.109,22.037v11.52h16.128c10.194-0.174,19.941,4.181,26.613,11.891
			C500.68,180.728,503.59,190.999,501.955,201.063z"/>
		<path style="fill:#3F51B5;" d="M451.267,149.607v11.52H83.053c-16.834-0.145-31.354,11.788-34.475,28.331l-40.533,230.4
			c-0.34,1.944-0.511,3.914-0.512,5.888V74.343c0.018-13.33,10.819-24.132,24.149-24.149h129.451
			c11.766-0.005,22.702,6.06,28.928,16.043l22.613,36.181c6.227,9.983,17.162,16.048,28.928,16.043H420.12
			c8.264-0.012,16.194,3.266,22.037,9.109S451.279,141.342,451.267,149.607z"/>
		<path style="fill:#283593;" d="M451.267,149.607l0,11.52h-25.6v-11.52c0.012-8.264-3.266-16.194-9.109-22.037
			s-13.773-9.121-22.037-9.109l25.6,0c8.264-0.012,16.194,3.266,22.037,9.109S451.279,141.342,451.267,149.607z"/>
		<path style="fill:#1566C0;" d="M501.955,201.063l-40.533,230.401c-3.135,16.569-17.698,28.507-34.56,28.331l-25.6,0.002
			c16.862,0.174,31.425-11.764,34.56-28.333l40.533-230.401c2.97-17.552-8.072-34.432-25.344-38.742l0.256-1.195h16.128
			c10.194-0.174,19.941,4.181,26.613,11.891C500.68,180.728,503.59,190.999,501.955,201.063z"/>
	</g>
	<path d="M39.683,469.327H427.85c21.012,0.181,39.128-14.736,42.983-35.392l40.533-230.417c2.131-12.279-1.283-24.871-9.325-34.392
		c-8.368-9.903-20.693-15.591-33.658-15.533H460.8v-2.983c-0.023-21.907-17.777-39.66-39.683-39.683H242.6
		c-8.831,0.032-17.045-4.524-21.692-12.033L198.3,62.718c-7.752-12.515-21.445-20.109-36.167-20.058H32.683
		C14.64,42.678,0.018,57.3,0,75.343v354.3C0.023,451.55,17.777,469.303,39.683,469.327z M488.983,180.11
		c4.792,5.666,6.83,13.163,5.567,20.475l-40.525,230.367c-2.409,12.507-13.44,21.486-26.175,21.308H39.683
		c-12.486-0.011-22.605-10.13-22.617-22.617v-2.9c0.002-1.478,0.133-2.953,0.392-4.408L58,191.926
		c2.351-12.497,13.368-21.48,26.083-21.266h384.3C476.31,170.607,483.853,174.068,488.983,180.11z M32.683,59.727h129.45
		c8.831-0.032,17.045,4.524,21.692,12.033l22.608,36.175c7.752,12.515,21.445,20.109,36.167,20.058h178.517
		c12.486,0.011,22.605,10.13,22.617,22.617v2.983H84.083c-21.012-0.228-39.13,14.719-42.9,35.392L17.067,326.046V75.343
		C17.078,66.723,24.063,59.738,32.683,59.727z"/>
</g>
<g>
</g>
<g>
</g>
<g>
</g>
<g>
</g>
<g>
</g>
<g>
</g>
<g>
</g>
<g>
</g>
<g>
</g>
<g>
</g>
<g>
</g>
<g>
</g>
<g>
</g>
<g>
</g>
<g>
</g>
</svg>
