<svg height="512pt" viewBox="0 -45 512.00125 512" width="512pt" xmlns="http://www.w3.org/2000/svg"><path d="m180.332031 178.660156v154.453125c0 15.269531 12.378907 27.648438 27.648438 27.648438h37.902343l48.261719 50.15625 43.5-50.15625h97.8125c15.273438 0 27.652344-12.378907 27.652344-27.648438v-111" fill="#8cbcff"/><path d="m219.105469 69.347656v-33.347656c0-15.269531 12.378906-27.648438 27.648437-27.648438h227.480469c15.269531 0 27.648437 12.378907 27.648437 27.648438v154.449219c0 15.269531-12.378906 27.652343-27.648437 27.652343h-37.902344l-48.261719 50.15625-43.5-50.15625h-50.628906" fill="#87a0af"/><path d="m10.226562 195.300781v56.609375c0 15.269532 12.378907 27.648438 27.648438 27.648438h37.902344l48.261718 50.15625 43.5-50.15625h97.8125c15.273438 0 27.652344-12.378906 27.652344-27.648438v-154.453125c0-15.269531-12.378906-27.648437-27.652344-27.648437h-227.476562c-15.269531 0-27.648438 12.378906-27.648438 27.648437v17.921875" fill="#9ee2f8"/><path d="m474.234375 0h-227.480469c-20.824218 0-37.765625 16.941406-37.765625 37.765625v23.695313h-171.113281c-20.824219 0-37.765625 16.941406-37.765625 37.765624v17.917969c0 5.589844 4.53125 10.117188 10.117187 10.117188 5.585938 0 10.117188-4.527344 10.117188-10.117188v-17.917969c0-9.667968 7.863281-17.53125 17.53125-17.53125h227.480469c9.667969 0 17.53125 7.863282 17.53125 17.53125v154.453126c0 9.664062-7.863281 17.53125-17.53125 17.53125h-97.816407c-2.933593 0-5.722656 1.273437-7.644531 3.488281l-36.242187 41.789062-40.585938-42.175781c-1.90625-1.980469-4.539062-3.101562-7.289062-3.101562h-37.902344c-9.667969 0-17.53125-7.867188-17.53125-17.53125v-56.609376c0-5.585937-4.53125-10.117187-10.117188-10.117187-5.585937 0-10.117187 4.53125-10.117187 10.117187v56.609376c0 20.824218 16.941406 37.765624 37.765625 37.765624h33.597656l45.277344 47.054688c1.910156 1.984375 4.542969 3.101562 7.289062 3.101562.089844 0 .175782 0 .261719-.003906 2.84375-.074218 5.523438-1.339844 7.382813-3.484375l38.53125-44.429687v41.195312c0 20.824219 16.941406 37.765625 37.765625 37.765625h33.597656l45.277344 47.054688c1.910156 1.984375 4.542969 3.101562 7.289062 3.101562h.261719c2.84375-.074219 5.519531-1.339843 7.382812-3.488281l40.476563-46.667969h93.195313c20.824218 0 37.765624-16.941406 37.765624-37.765625v-104.894531h1.007813c20.824219 0 37.765625-16.941406 37.765625-37.765625v-154.449219c0-20.824219-16.941406-37.769531-37.765625-37.769531zm-21.242187 334.878906c0 9.667969-7.863282 17.53125-17.53125 17.53125h-97.816407c-2.933593 0-5.722656 1.273438-7.644531 3.488282l-36.242188 41.792968-40.585937-42.175781c-1.90625-1.984375-4.539063-3.101563-7.289063-3.101563h-37.902343c-9.667969 0-17.53125-7.867187-17.53125-17.535156v-43.433594h74.902343c20.828126 0 37.769532-16.941406 37.769532-37.765624v-23.695313h36.832031l40.472656 46.667969c1.863281 2.148437 4.539063 3.410156 7.382813 3.484375.085937.003906.171875.003906.261718.003906 2.746094 0 5.378907-1.117187 7.289063-3.101563l45.277344-47.054687h12.355469zm38.773437-142.660156c0 9.667969-7.863281 17.53125-17.53125 17.53125h-37.902344c-2.75 0-5.382812 1.121094-7.289062 3.101562l-40.585938 42.179688-36.242187-41.792969c-1.921875-2.214843-4.710938-3.488281-7.644532-3.488281h-41.449218v-110.523438c0-20.824218-16.941406-37.765624-37.769532-37.765624h-36.128906v-23.691407c0-9.667969 7.863282-17.535156 17.53125-17.535156h227.480469c9.667969 0 17.53125 7.867187 17.53125 17.535156zm0 0"/><path d="m7.195312 166.792969.214844.066406c.976563.292969 1.960938.433594 2.929688.433594 4.34375 0 8.359375-2.820313 9.679687-7.195313 1.613281-5.351562-1.414062-10.996094-6.761719-12.609375l-.214843-.066406c-5.351563-1.613281-10.992188 1.414063-12.609375 6.761719-1.613282 5.351562 1.414062 10.996094 6.761718 12.609375zm0 0"/><path d="m332.234375 131.167969.214844.066406c.972656.289063 1.953125.429687 2.917969.429687 4.347656 0 8.367187-2.828124 9.683593-7.207031 1.605469-5.351562-1.425781-10.992187-6.777343-12.601562l-.214844-.066407c-5.355469-1.605468-10.996094 1.429688-12.601563 6.78125-1.609375 5.347657 1.425781 10.992188 6.777344 12.597657zm0 0"/><path d="m451.257812 66.5625h-116.003906c-5.585937 0-10.117187 4.53125-10.117187 10.117188 0 5.585937 4.53125 10.117187 10.117187 10.117187h116.003906c5.589844 0 10.117188-4.53125 10.117188-10.117187 0-5.585938-4.527344-10.117188-10.117188-10.117188zm0 0"/><path d="m451.257812 110.382812h-75.199218c-5.585938 0-10.117188 4.53125-10.117188 10.117188s4.53125 10.117188 10.117188 10.117188h75.199218c5.589844 0 10.117188-4.53125 10.117188-10.117188s-4.527344-10.117188-10.117188-10.117188zm0 0"/><path d="m451.257812 154.203125h-116.003906c-5.585937 0-10.117187 4.53125-10.117187 10.117187 0 5.589844 4.53125 10.117188 10.117187 10.117188h116.003906c5.589844 0 10.117188-4.527344 10.117188-10.117188 0-5.585937-4.527344-10.117187-10.117188-10.117187zm0 0"/></svg>