<?xml version="1.0" encoding="iso-8859-1"?>
<!-- Generator: Adobe Illustrator 19.0.0, SVG Export Plug-In . SVG Version: 6.00 Build 0)  -->
<svg version="1.1" id="Capa_1" xmlns="http://www.w3.org/2000/svg" xmlns:xlink="http://www.w3.org/1999/xlink" x="0px" y="0px"
	 viewBox="0 0 511.999 511.999" style="enable-background:new 0 0 511.999 511.999;" xml:space="preserve">
<g>
	<path style="fill:#FBC640;" d="M83.677,427.453V200.987l-37.58,53.674c-3.923,5.59-10.337,8.928-17.156,8.928
		c-4.31,0-8.458-1.314-11.996-3.798c-4.579-3.204-7.635-8.002-8.606-13.507s0.261-11.059,3.467-15.64l65.919-94.15
		c4.326-6.181,11.419-9.872,18.973-9.872h72.093c7.549,0,14.637,3.691,18.963,9.873l46.685,66.669l1.464,1.332l-1.616,1.495
		c-6.819,6.221-10.73,15.085-10.73,24.318c0,12.018,6.553,23.093,17.101,28.902l1.762,0.97l-1.659,3.002l-0.972,0.152
		c-1.067,0.168-2.157,0.253-3.241,0.253c-6.835,0-13.248-3.337-17.158-8.927l-37.599-53.694v119.804l-13.003,20.744
		c-2.265,3.231-3.135,7.151-2.45,11.038c0.686,3.887,2.841,7.274,6.073,9.534c2.213,1.557,4.805,2.471,7.501,2.643l1.879,0.12
		v62.602H83.677V427.453z"/>
	<path style="fill:#FBC640;" d="M132.74,130.636c-22.525,0-40.85-18.321-40.85-40.84c0-22.525,18.326-40.85,40.85-40.85
		c22.519,0,40.84,18.326,40.84,40.85C173.58,112.315,155.259,130.636,132.74,130.636z"/>
	<path style="fill:#FBC640;" d="M379.238,130.636c-22.519,0-40.84-18.321-40.84-40.84c0-22.525,18.321-40.85,40.84-40.85
		c22.52,0,40.841,18.326,40.841,40.85C420.078,112.315,401.757,130.636,379.238,130.636z"/>
	<path style="fill:#FBC640;" d="M330.174,427.453v-62.686h2.008c3.036,0,5.96-0.926,8.454-2.678
		c3.949-2.766,6.304-7.297,6.304-12.121c0-3.033-0.924-5.957-2.669-8.457l-14.096-22.469V200.987l-37.579,53.674
		c-3.911,5.585-10.321,8.92-17.148,8.92c-0.687,0-1.38-0.034-2.064-0.102l-1.052-0.104l-1.748-3.18l1.762-0.966
		c10.572-5.801,17.139-16.882,17.139-28.921c0-9.541-4.132-18.606-11.338-24.869l-1.363-1.187l47.449-67.761
		c4.326-6.181,11.415-9.872,18.964-9.872h72.093c7.549,0,14.637,3.69,18.963,9.873l65.929,94.148
		c2.478,3.545,3.786,7.692,3.786,11.995c0,6.827-3.337,13.24-8.928,17.155c-3.538,2.481-7.685,3.791-11.992,3.792
		c-6.829,0-13.242-3.336-17.157-8.924l-37.59-53.694V427.45h-98.126V427.453z"/>
</g>
<g>
	<path style="fill:#30C9B0;" d="M256.526,267.284c-6.22,0-12.377-1.575-17.803-4.555c-11.832-6.516-19.181-18.938-19.181-32.42
		c0-10.359,4.388-20.304,12.039-27.285c6.82-6.249,15.681-9.69,24.946-9.69c8.922,0,17.538,3.224,24.258,9.078
		c8.082,7.024,12.717,17.193,12.717,27.898c0,13.504-7.366,25.935-19.224,32.44C268.857,265.716,262.72,267.284,256.526,267.284z"/>
	<path style="fill:#30C9B0;" d="M212.794,463.053V331.454l-16.461,29.234l-0.057,0.08c-3.515,5.018-9.27,8.013-15.398,8.013
		c-0.415,0-0.83-0.012-1.258-0.047c-3.399-0.218-6.702-1.381-9.516-3.361c-4.106-2.873-6.849-7.18-7.72-12.125
		c-0.867-4.927,0.228-9.896,3.086-13.997l42.084-67.136c3.874-5.541,10.232-8.848,17.006-8.848h63.931
		c6.762,0,13.119,3.307,17.005,8.847l28.695,45.763v0.01l13.428,21.407c2.165,3.094,3.338,6.814,3.338,10.674
		c0,6.133-2.996,11.894-8.013,15.409c-3.171,2.228-6.893,3.406-10.76,3.406c-6.133,0-11.894-2.996-15.409-8.013l-0.057-0.081
		l-16.461-29.25v131.616h-87.462V463.053z"/>
</g>
<path d="M488.786,200.367c-3.179-4.541-9.439-5.646-13.983-2.465c-4.541,3.18-5.645,9.44-2.465,13.983l17.969,25.661
	c1.055,1.509,1.612,3.27,1.612,5.091c0,2.9-1.418,5.625-3.795,7.29c-1.945,1.362-4.302,1.887-6.634,1.474
	c-2.336-0.412-4.372-1.709-5.732-3.649l-41.242-58.911c-2.514-3.589-7.062-5.133-11.243-3.817c-4.178,1.318-7.021,5.193-7.021,9.575
	v106.047v114.762h-26.976V300.644c0-5.544-4.496-10.039-10.039-10.039c-5.544,0-10.039,4.496-10.039,10.039v114.762h-26.976V374.86
	c1.865-0.757,3.652-1.727,5.329-2.904c7.162-5.017,11.438-13.237,11.438-21.986c0-5.421-1.618-10.646-4.683-15.128l-12.082-19.264
	V194.619c0-4.381-2.842-8.257-7.021-9.575c-4.18-1.317-8.73,0.227-11.242,3.817l-23.212,33.154
	c-1.293-6.892-4.172-13.383-8.418-18.956l41.775-59.657c2.073-2.964,5.472-4.733,9.093-4.733h72.093
	c3.619,0,7.019,1.769,9.095,4.736l16.778,23.958c3.181,4.541,9.439,5.646,13.983,2.465c4.541-3.18,5.645-9.44,2.465-13.983
	l-16.776-23.955c-5.196-7.426-13.355-12.173-22.271-13.116c5.995-8.114,9.548-18.137,9.548-28.977
	c0-26.954-21.924-48.882-48.873-48.882c-26.948,0-48.872,21.929-48.872,48.882c0,10.84,3.553,20.863,9.548,28.978
	c-8.912,0.945-17.066,5.69-22.258,13.111l-40.809,58.277c-6.253-3.166-13.204-4.861-20.32-4.861c-7.442,0-14.666,1.835-21.105,5.261
	l-41.086-58.673c-5.196-7.426-13.354-12.173-22.269-13.116c5.995-8.114,9.548-18.137,9.548-28.977
	c0-26.954-21.924-48.882-48.872-48.882c-26.954,0-48.882,21.929-48.882,48.882c0,10.841,3.554,20.864,9.551,28.978
	c-8.914,0.947-17.069,5.691-22.261,13.113L5.226,226.038c-9.157,13.085-5.964,31.18,7.104,40.325
	c4.897,3.44,10.642,5.257,16.612,5.257c9.434,0,18.305-4.615,23.735-12.354l22.969-32.806v74.183v124.801
	c0,5.544,4.496,10.039,10.039,10.039h47.055h47.044c5.544,0,10.039-4.496,10.039-10.039v-50.18
	c5.199-1.841,9.786-5.256,13.031-9.889c0.189-0.27,0.363-0.548,0.525-0.834l1.381-2.454v22.928v76.029
	c0,5.544,4.496,10.039,10.039,10.039h41.725h41.724c5.544,0,10.039-4.496,10.039-10.039v-76.029v-22.929l1.38,2.453
	c0.162,0.287,0.337,0.566,0.526,0.836c3.017,4.307,7.195,7.56,11.947,9.476v50.593c0,5.544,4.496,10.039,10.039,10.039h47.055
	h47.055c5.544,0,10.039-4.496,10.039-10.039V300.644v-74.2l22.981,32.826c4.437,6.334,11.076,10.562,18.691,11.904
	c7.62,1.345,15.308-0.362,21.643-4.803c7.734-5.417,12.353-14.289,12.353-23.734c0-5.958-1.81-11.696-5.24-16.602L488.786,200.367z
	 M379.238,60.993c15.876,0,28.794,12.921,28.794,28.803c0,15.876-12.917,28.793-28.794,28.793
	c-15.877,0-28.793-12.916-28.793-28.793C350.445,73.914,363.361,60.993,379.238,60.993z M322.143,283.542l-9.785-15.607
	c-0.092-0.147-0.188-0.291-0.286-0.433c-3.03-4.319-7.143-7.66-11.831-9.756l21.903-31.284L322.143,283.542L322.143,283.542z
	 M272.872,211.495c0.002,0.002,0.005,0.004,0.007,0.007c5.449,4.737,8.575,11.591,8.575,18.806c0,9.105-4.971,17.489-12.963,21.874
	c-3.703,2.027-7.727,3.054-11.965,3.054c-4.199,0-8.35-1.061-11.993-3.062c-7.984-4.396-12.945-12.776-12.945-21.866
	c0-6.98,2.957-13.682,8.127-18.398c4.596-4.211,10.566-6.53,16.811-6.53C262.539,205.38,268.345,207.552,272.872,211.495z
	 M212.014,258.128c-4.362,2.111-8.188,5.307-11.041,9.385c-0.097,0.139-0.19,0.278-0.279,0.422l-10.87,17.342v-58.839
	L212.014,258.128z M132.74,60.993c15.876,0,28.793,12.921,28.793,28.803c0,15.876-12.916,28.793-28.793,28.793
	c-15.882,0-28.803-12.916-28.803-28.793C103.937,73.914,116.857,60.993,132.74,60.993z M142.779,415.406V300.644
	c0-5.544-4.496-10.039-10.039-10.039S122.7,295.1,122.7,300.644v114.762H95.724V300.644V194.619c0-4.381-2.842-8.257-7.021-9.575
	c-4.179-1.317-8.729,0.227-11.242,3.817l-41.226,58.882c-1.67,2.378-4.395,3.798-7.294,3.798c-1.819,0-3.573-0.557-5.086-1.619
	c-1.944-1.359-3.241-3.395-3.652-5.73c-0.412-2.336,0.11-4.695,1.472-6.639l65.921-94.151c2.073-2.964,5.476-4.733,9.102-4.733
	h72.093c3.619,0,7.019,1.769,9.095,4.736l42.288,60.39c-4.181,5.735-6.968,12.397-8.096,19.419l-24.07-34.374
	c-2.515-3.589-7.069-5.132-11.242-3.816c-4.179,1.318-7.021,5.193-7.021,9.575v122.713l-10.984,17.525
	c-3.992,5.821-5.513,12.843-4.287,19.807c1.244,7.059,5.161,13.207,11.009,17.299c1.347,0.948,2.778,1.753,4.262,2.433v41.031
	L142.779,415.406L142.779,415.406z M306.998,318.852c-2.238-3.977-6.873-5.943-11.294-4.789c-4.414,1.158-7.494,5.147-7.494,9.712
	v61.241v65.989h-21.645v-65.989c0-5.544-4.496-10.039-10.039-10.039c-5.544,0-10.039,4.496-10.039,10.039v65.989H224.84v-65.989
	v-61.219c0-4.564-3.078-8.555-7.493-9.711c-4.415-1.161-9.056,0.809-11.294,4.786l-19.872,35.294
	c-1.276,1.616-3.231,2.571-5.303,2.571c-0.092,0-0.182,0.001-0.275-0.007c-0.059-0.005-0.116-0.009-0.176-0.013
	c-1.236-0.079-2.376-0.481-3.41-1.209c-1.473-1.03-2.456-2.574-2.768-4.347c-0.313-1.775,0.083-3.562,1.116-5.036
	c0.099-0.142,0.194-0.285,0.286-0.432l41.894-66.837c1.632-2.22,4.24-3.539,7.015-3.539h63.931c2.769,0,5.376,1.321,7.018,3.546
	l28,44.658c0.055,0.094,0.11,0.187,0.169,0.278l13.735,21.897c0.088,0.142,0.181,0.279,0.275,0.416
	c0.799,1.145,1.222,2.478,1.222,3.857c0,2.207-1.076,4.279-2.888,5.548c-1.124,0.789-2.439,1.208-3.8,1.216
	c-0.013,0-0.025-0.002-0.038-0.002c-0.015,0-0.03,0.002-0.045,0.002c-2.061-0.014-4-0.963-5.267-2.568L306.998,318.852z"/>
<path d="M464.312,194.256c12.92,0,12.941-20.079,0-20.079C451.392,174.177,451.37,194.256,464.312,194.256z"/>
<g>
</g>
<g>
</g>
<g>
</g>
<g>
</g>
<g>
</g>
<g>
</g>
<g>
</g>
<g>
</g>
<g>
</g>
<g>
</g>
<g>
</g>
<g>
</g>
<g>
</g>
<g>
</g>
<g>
</g>
</svg>
