<?xml version="1.0" encoding="iso-8859-1"?>
<!-- Generator: Adobe Illustrator 19.0.0, SVG Export Plug-In . SVG Version: 6.00 Build 0)  -->
<svg xmlns="http://www.w3.org/2000/svg" xmlns:xlink="http://www.w3.org/1999/xlink" version="1.1" id="Layer_1" x="0px" y="0px" viewBox="0 0 512 512" style="enable-background:new 0 0 512 512;" xml:space="preserve" width="512" height="512">
<g id="XMLID_1343_">
	<g id="XMLID_934_">
		<path id="XMLID_931_" style="fill:#4DBAF6;" d="M74,445.283H10v-106c0-17.673,14.327-32,32-32h0c17.673,0,32,14.327,32,32V445.283    z"/>
		<path id="XMLID_929_" style="fill:#2E9DE3;" d="M131.008,254.947v116.637l122.941,75.058c12.567,7.672,28.369,7.672,40.936,0    l122.941-75.058V254.947"/>
		<path id="XMLID_932_" style="fill:#72D8FF;" d="M502,200.321L271.459,341.072L40.917,200.321L271.459,59.57L502,200.321z"/>
	</g>
	<g id="XMLID_74_">
		<path id="XMLID_76_" d="M383.527,137.985c5.523,0,10-4.477,10-10s-4.477-10-10-10h-0.01c-5.523,0-9.995,4.477-9.995,10    S378.005,137.985,383.527,137.985z"/>
		<path id="XMLID_87_" d="M507.211,191.786l-83.975-51.269c-4.713-2.877-10.868-1.39-13.746,3.324    c-2.878,4.714-1.39,10.868,3.324,13.746l69.995,42.733L271.458,329.356L60.108,200.321L271.458,71.287l72.954,44.54    c4.713,2.878,10.868,1.39,13.746-3.324c2.878-4.714,1.39-10.868-3.324-13.746l-78.165-47.721c-3.199-1.953-7.223-1.953-10.422,0    L35.706,191.786c-2.967,1.812-4.779,5.034-4.787,8.51c-0.01,0.009-0.02,0.016-0.03,0.025v98.465    C13.107,303.671,0,319.971,0,339.283v106c0,5.523,4.477,10,10,10h64c5.523,0,10-4.477,10-10v-106    c0-20.109-14.208-36.954-33.111-41.045v-80.113l70.12,42.81v110.648c0,3.485,1.814,6.719,4.789,8.535l122.94,75.058    c7.92,4.835,16.799,7.252,25.679,7.252s17.759-2.417,25.679-7.252l122.941-75.058c2.975-1.816,4.789-5.05,4.789-8.535V257.323    l79.385-48.466c2.975-1.816,4.789-5.05,4.789-8.535S510.186,193.602,507.211,191.786z M20,435.283v-66.706h44v66.706H20z     M64,339.283v9.294H20v-9.294c0-12.131,9.869-22,22-22S64,327.152,64,339.283z M407.826,365.973l-28.16,17.192v-13.881    c0-5.523-4.477-10-10-10s-10,4.477-10,10v26.091l-69.992,42.732c-9.411,5.746-21.104,5.746-30.515,0l-118.151-72.134v-92.827    l125.239,76.461c1.6,0.977,3.405,1.465,5.211,1.465s3.611-0.488,5.211-1.465l131.157-80.074V365.973z"/>
		<path id="XMLID_91_" d="M369.67,339.283c2.63,0,5.21-1.07,7.07-2.93c1.86-1.86,2.93-4.44,2.93-7.07s-1.07-5.21-2.93-7.07    c-1.86-1.86-4.44-2.93-7.07-2.93c-2.64,0-5.21,1.07-7.07,2.93c-1.87,1.86-2.93,4.44-2.93,7.07s1.06,5.21,2.93,7.07    C364.46,338.213,367.03,339.283,369.67,339.283z"/>
		<g id="XMLID_817_">
			<path id="XMLID_73_" d="M271.46,210.323c-2.63,0-5.21-1.07-7.07-2.93c-1.86-1.86-2.93-4.44-2.93-7.07s1.07-5.21,2.93-7.07     c1.86-1.86,4.44-2.93,7.07-2.93s5.21,1.07,7.07,2.93c1.86,1.86,2.93,4.44,2.93,7.07s-1.07,5.21-2.93,7.07     C276.67,209.253,274.09,210.323,271.46,210.323z"/>
		</g>
	</g>
</g>















</svg>
